<?xml version="1.0" standalone="no"?><!DOCTYPE svg PUBLIC "-//W3C//DTD SVG 1.1//EN" "http://www.w3.org/Graphics/SVG/1.1/DTD/svg11.dtd"><svg t="1680681625315" class="icon" viewBox="0 0 1109 1024" version="1.1" xmlns="http://www.w3.org/2000/svg" p-id="3742" xmlns:xlink="http://www.w3.org/1999/xlink" width="216.6015625" height="200"><path d="M785.257133 147.818282h-338.165193v-106.236989a41.581293 41.581293 0 0 0-83.162586 0v106.236989H41.581293a41.581293 41.581293 0 0 0 0 83.162586h539.30497L397.542873 451.57487l-129.751227-142.388015a41.564376 41.564376 0 1 0-61.407686 56.02817l137.499084 150.914041L122.392455 782.584292A41.581293 41.581293 0 0 0 186.388399 835.685869L400.418715 578.196505l147.682948 161.994491a41.564376 41.564376 0 0 0 61.407687-56.045086l-155.430805-170.503601 224.992349-270.667488a41.006124 41.006124 0 0 0 6.462186-12.01087h99.808637a41.581293 41.581293 0 0 0 0-83.162586zM1105.575189 964.252926L860.874863 457.326555a41.530543 41.530543 0 0 0-37.436697-23.480405h-0.575169a41.716627 41.716627 0 0 0-37.352113 24.444658l-141.59293 313.635951a40.600123 40.600123 0 0 0-4.364513 9.659446l-82.891918 183.647891a41.615126 41.615126 0 0 0 75.854563 34.273271l74.348976-164.701167H950.719552l79.948409 165.682336A41.59821 41.59821 0 0 0 1105.575189 964.252926zM744.335592 751.643614l80.337494-177.946956 85.869261 177.946956z" fill="#ffffff" p-id="3743"></path></svg>